HIERARCHY
ROOT Hips
{
 OFFSET 0.000000 0.000000 0.000000
 CHANNELS 6 Xposition Yposition Zposition Yrotation Xrotation Zrotation
 JOINT Chest
 {
  OFFSET 0.000000 9.581000 -0.001100
  CHANNELS 3 Yrotation Xrotation Zrotation
  JOINT Chest2
  {
   OFFSET 0.000000 9.561100 0.002200
   CHANNELS 3 Yrotation Xrotation Zrotation
   JOINT Chest3
   {
    OFFSET 0.000000 9.521100 0.000000
    CHANNELS 3 Yrotation Xrotation Zrotation
    JOINT Chest4
    {
     OFFSET 0.000000 9.511400 0.000000
     CHANNELS 3 Yrotation Xrotation Zrotation
     JOINT Neck
     {
      OFFSET 0.000000 14.375100 0.000000
      CHANNELS 3 Yrotation Xrotation Zrotation
      JOINT Head
      {
       OFFSET 0.000000 8.901200 0.004600
       CHANNELS 3 Yrotation Xrotation Zrotation
       End Site
       {
        OFFSET 0.000000 16.962200 0.002400
       }
      }
     }
     JOINT RightCollar
     {
      OFFSET -2.920100 9.518800 0.000000
      CHANNELS 3 Yrotation Xrotation Zrotation
      JOINT RightShoulder
      {
       OFFSET -13.664500 0.000000 0.000000
       CHANNELS 3 Yrotation Xrotation Zrotation
       JOINT RightElbow
       {
        OFFSET 0.000000 -29.999200 0.000000
        CHANNELS 3 Yrotation Xrotation Zrotation
        JOINT RightWrist
        {
         OFFSET 0.000000 -24.253600 0.000000
         CHANNELS 3 Yrotation Xrotation Zrotation
         End Site
         {
          OFFSET 0.000000 -17.918900 0.000000
         }
        }
       }
      }
     }
     JOINT LeftCollar
     {
      OFFSET 2.920100 9.518800 0.000000
      CHANNELS 3 Yrotation Xrotation Zrotation
      JOINT LeftShoulder
      {
       OFFSET 13.664500 0.000000 0.000000
       CHANNELS 3 Yrotation Xrotation Zrotation
       JOINT LeftElbow
       {
        OFFSET 0.000000 -29.999200 0.000000
        CHANNELS 3 Yrotation Xrotation Zrotation
        JOINT LeftWrist
        {
         OFFSET 0.000000 -24.253600 0.000000
         CHANNELS 3 Yrotation Xrotation Zrotation
         End Site
         {
          OFFSET 0.000000 -17.918900 0.000000
         }
        }
       }
      }
     }
    }
   }
  }
 }
 JOINT RightHip
 {
  OFFSET -7.797300 0.005300 0.000500
  CHANNELS 3 Yrotation Xrotation Zrotation
  JOINT RightKnee
  {
   OFFSET 0.000000 -40.663400 -0.000500
   CHANNELS 3 Yrotation Xrotation Zrotation
   JOINT RightAnkle
   {
    OFFSET 0.000000 -39.523700 -0.000900
    CHANNELS 3 Yrotation Xrotation Zrotation
    JOINT RightToe
    {
     OFFSET 0.000000 -6.418000 14.485300
     CHANNELS 3 Yrotation Xrotation Zrotation
     End Site
     {
      OFFSET 0.000000 -1.465200 6.326400
     }
    }
   }
  }
 }
 JOINT LeftHip
 {
  OFFSET 7.797300 0.005300 0.000500
  CHANNELS 3 Yrotation Xrotation Zrotation
  JOINT LeftKnee
  {
   OFFSET 0.000000 -40.663400 -0.000500
   CHANNELS 3 Yrotation Xrotation Zrotation
   JOINT LeftAnkle
   {
    OFFSET 0.000000 -39.523700 -0.000900
    CHANNELS 3 Yrotation Xrotation Zrotation
    JOINT LeftToe
    {
     OFFSET 0.000000 -6.418000 14.485300
     CHANNELS 3 Yrotation Xrotation Zrotation
     End Site
     {
      OFFSET 0.000000 -1.465200 6.326400
     }
    }
   }
  }
 }
}
MOTION
Frames: 12
Frame Time: 0.008333
0.000000 86.422400 0.000000 0.000000 -5.767877 0.000000 0.000000 11.653817 0.000000 0.000000 -5.885947 0.000000 0.000000 -0.000000 0.000000 0.000000 -0.000000 0.000000 0.000000 12.528835 0.000000 0.000000 0.711642 0.000000 0.000000 -0.000000 0.000000 0.000000 0.000000 -90.000000 0.000000 -2.309062 0.000000 0.000000 2.309062 0.000000 0.000000 -0.000000 0.000000 0.000000 -0.000000 90.000000 0.000000 -2.309062 0.000000 0.000000 2.309062 0.000000 0.000000 8.520406 0.000000 0.000000 1.905762 0.000000 -0.000000 -4.658285 0.000000 0.000000 -0.000000 0.000000 0.000000 8.520406 0.000000 0.000000 1.905762 0.000000 -0.000000 -4.658285 0.000000 0.000000 -0.000000 0.000000
-14.938776 126.892531 14.926326 174.464469 -48.765069 -6.401601 1.382494 26.162240 3.098454 0.114297 4.330788 0.502988 0.224362 6.996071 0.690741 1.003610 21.509499 2.423515 -3.252202 13.723053 -3.421961 -2.659556 -11.255598 -2.878187 3.210511 2.696012 4.477488 -6.015813 -26.594502 -12.417594 -95.186339 -50.121317 145.156968 -8.157272 -2.714089 6.849589 -8.960244 0.247830 -1.932307 5.205030 -20.534017 8.360966 71.267054 -39.478453 -120.326135 10.351380 -10.576563 -24.054948 -15.312216 -9.667347 6.789311 11.460496 75.875869 27.920403 23.122754 -17.873012 14.373545 0.014867 0.009953 0.006588 8.659779 -17.638332 -3.775696 12.854976 68.165587 1.594680 7.461259 -7.644107 13.862131 -0.000910 0.001782 -0.000403
-14.940777 126.893544 14.924809 174.488815 -48.769984 -6.422242 1.373749 26.178144 3.090282 0.126933 4.378424 0.457900 0.235024 7.040924 0.665872 1.017245 21.520336 2.412800 -3.293619 13.581922 -3.405087 -2.708218 -11.402135 -2.851826 3.136979 2.710987 4.479387 -6.178881 -26.359089 -12.390656 -95.686803 -50.274008 145.668544 -7.800562 -2.334720 7.196406 -8.934990 0.289413 -1.889017 5.198878 -20.400627 8.258134 71.918602 -40.010378 -120.838628 9.988791 -10.253679 -24.251535 -15.316442 -9.666883 6.797535 11.340736 75.883692 27.789523 23.118741 -17.887871 14.389566 0.007414 -0.000391 0.003285 8.646571 -17.626315 -3.775006 12.864839 68.147992 1.610158 7.462026 -7.638463 13.847959 -0.000489 0.000601 -0.000217
-14.943239 126.894223 14.922866 174.500347 -48.769500 -6.432342 1.389098 26.217055 3.046447 0.150075 4.434778 0.414097 0.233095 7.018904 0.704484 1.023166 21.499201 2.432329 -3.342925 13.485353 -3.440147 -2.754739 -11.549724 -2.825658 3.057621 2.774855 4.432238 -6.354378 -26.121036 -12.358191 -96.245936 -50.446632 146.226024 -7.416013 -1.953320 7.531530 -8.899880 0.370134 -1.897746 5.205449 -20.272048 8.142772 72.637607 -40.582904 -121.377974 9.561264 -9.867436 -24.450188 -15.305160 -9.673228 6.809247 11.219108 75.889926 27.666634 23.109342 -17.897928 14.404015 0.003811 -0.006091 0.001689 8.643757 -17.618874 -3.773420 12.873107 68.131783 1.618736 7.458235 -7.631853 13.847657 -0.000238 -0.000352 -0.000106
-14.945941 126.895569 14.919426 174.516773 -48.769068 -6.445409 1.411336 26.256424 3.014832 0.159381 4.458421 0.397541 0.232738 7.020955 0.710925 1.034863 21.546132 2.384688 -3.372178 13.324207 -3.398393 -2.796576 -11.691365 -2.802921 2.976107 2.761965 4.446248 -6.525798 -25.878256 -12.323304 -96.873622 -50.643821 146.827191 -7.009794 -1.570917 7.834209 -8.856824 0.388529 -1.824164 5.210584 -20.148079 8.024214 73.413879 -41.179534 -121.946871 9.077673 -9.423146 -24.634608 -15.303995 -9.670469 6.813318 11.145886 75.884216 27.591479 23.107774 -17.900241 14.415576 0.000141 -0.008242 0.000062 8.650961 -17.607088 -3.774477 12.861157 68.114993 1.614811 7.459463 -7.630419 13.849074 0.000866 -0.000995 0.000384
-14.948493 126.896545 14.915364 174.545036 -48.758685 -6.469158 1.441179 26.305325 2.970314 0.137450 4.422989 0.441270 0.245848 7.054702 0.680255 1.046475 21.582646 2.341845 -3.395498 13.177968 -3.362208 -2.829295 -11.821332 -2.786219 2.895932 2.758880 4.450340 -6.685212 -25.637104 -12.289620 -97.563831 -50.860698 147.459142 -6.591553 -1.183545 8.105550 -8.805006 0.408212 -1.755662 5.209467 -20.029147 7.908476 74.231503 -41.789658 -122.538307 8.552010 -8.931133 -24.796699 -15.315267 -9.674985 6.819453 11.107296 75.879215 27.551740 23.109248 -17.899222 14.419867 -0.001727 -0.011372 -0.000765 8.641048 -17.608419 -3.774075 12.862810 68.104113 1.623065 7.443246 -7.625695 13.843701 0.000926 -0.001749 0.000410
-14.950451 126.893608 14.913918 174.611260 -48.706936 -6.527512 1.411905 26.277334 2.963353 0.138495 4.426525 0.439335 0.257980 7.083110 0.652792 1.050500 21.563149 2.360651 -3.421360 13.092439 -3.396071 -2.852350 -11.936916 -2.774719 2.818863 2.812131 4.386815 -6.829653 -25.399454 -12.260622 -98.294129 -51.087670 148.101605 -6.167084 -0.785260 8.357190 -8.776567 0.426108 -1.735693 5.237646 -19.879728 7.780417 75.076904 -42.403239 -123.138751 8.001532 -8.401889 -24.932863 -15.365205 -9.716359 6.839504 11.094807 75.874461 27.536158 23.141725 -17.880689 14.403302 0.001211 -0.011834 0.000537 8.603014 -17.654891 -3.770783 12.872999 68.097483 1.631433 7.421445 -7.619503 13.848978 -0.000673 -0.000040 -0.000298
-14.951987 126.893024 14.909433 174.640008 -48.670422 -6.559325 1.423662 26.284156 2.946783 0.140848 4.430189 0.435459 0.259145 7.082103 0.647489 1.056879 21.546891 2.379353 -3.440703 13.014949 -3.427459 -2.866771 -12.036025 -2.765897 2.742500 2.855503 4.319525 -6.954593 -25.160615 -12.238254 -99.040067 -51.321152 148.737962 -5.736699 -0.376808 8.595363 -8.696860 0.482172 -1.748394 5.187466 -19.792182 7.700020 75.935930 -43.011423 -123.742403 7.438427 -7.844281 -25.035197 -15.381382 -9.740599 6.855864 11.108771 75.863607 27.561459 23.162276 -17.862051 14.389991 0.006496 -0.009000 0.002878 8.591471 -17.683325 -3.770921 12.863340 68.090235 1.627475 7.434289 -7.626959 13.841367 0.000967 -0.000633 0.000429
-14.953565 126.892336 14.904100 174.668930 -48.627049 -6.591174 1.457195 26.321922 2.898480 0.127700 4.390668 0.474601 0.256641 7.078926 0.640585 1.069786 21.584325 2.309673 -3.434842 12.902651 -3.360086 -2.872535 -12.116209 -2.758459 2.674368 2.834142 4.337149 -7.057983 -24.920207 -12.224135 -99.774640 -51.555064 149.350308 -5.303544 0.032761 8.825565 -8.613502 0.479926 -1.662453 5.113847 -19.706054 7.638216 76.792664 -43.609508 -124.343207 6.868856 -7.266079 -25.094299 -15.390160 -9.763904 6.871789 11.134941 75.847402 27.615089 23.144082 -17.867006 14.367834 0.004001 -0.010527 0.001772 8.578481 -17.718228 -3.768345 12.862397 68.085990 1.622439 7.438608 -7.634178 13.846409 0.001726 -0.001423 0.000765
-14.955019 126.891618 14.898041 174.697774 -48.577904 -6.623669 1.449353 26.294831 2.893836 0.150260 4.438755 0.416869 0.251737 7.042852 0.671358 1.073916 21.576868 2.311191 -3.434826 12.844909 -3.369480 -2.871754 -12.177289 -2.750370 2.615110 2.855136 4.281143 -7.137334 -24.680313 -12.223784 -100.466272 -51.779855 149.919614 -4.881386 0.430632 9.053093 -8.542397 0.482660 -1.650650 5.033157 -19.613760 7.591103 77.634902 -44.196746 -124.929602 6.297956 -6.678634 -25.100817 -15.412865 -9.799373 6.889531 11.168336 75.839895 27.659709 23.168532 -17.840265 14.338877 0.004408 -0.007698 0.001953 8.574941 -17.758568 -3.766226 12.853806 68.088378 1.617618 7.426627 -7.642354 13.852693 0.002001 -0.001519 0.000887
-14.957704 126.893693 14.888549 174.710530 -48.548635 -6.634914 1.451077 26.285782 2.881019 0.160668 4.455787 0.394833 0.245877 7.020919 0.690160 1.076537 21.574907 2.303537 -3.434076 12.806112 -3.395042 -2.865197 -12.220469 -2.739866 2.558183 2.879008 4.208816 -7.189179 -24.445150 -12.243422 -101.080203 -51.984917 150.426606 -4.485714 0.811713 9.273333 -8.475918 0.476302 -1.660530 4.920468 -19.531282 7.569035 78.446310 -44.775367 -125.484151 5.730658 -6.102435 -25.055498 -15.417169 -9.813594 6.893736 11.199767 75.830726 27.706935 23.164370 -17.842072 14.320318 0.000141 -0.011966 0.000062 8.593427 -17.771940 -3.765176 12.845129 68.091134 1.605375 7.392986 -7.651167 13.872994 -0.000297 -0.003525 -0.000132
-14.960462 126.896087 14.878305 174.723916 -48.518268 -6.645733 1.464322 26.298752 2.855729 0.147582 4.421803 0.421284 0.250410 7.025918 0.676450 1.080017 21.582682 2.204903 -3.407457 12.778913 -3.294919 -2.845978 -12.257194 -2.755425 2.535888 2.867757 4.280874 -7.215121 -24.216813 -12.339808 -101.582284 -52.162854 150.848294 -4.121074 1.179824 9.481223 -8.412615 0.456846 -1.577445 4.773823 -19.458746 7.571152 79.215439 -45.347498 -125.991767 5.181592 -5.557884 -24.970209 -15.417914 -9.824224 6.894261 11.290914 75.817639 27.823839 23.146945 -17.853034 14.294854 -0.000301 -0.013242 -0.000133 8.605684 -17.786532 -3.774649 12.842481 68.093201 1.609440 7.373270 -7.662187 13.883216 0.000295 -0.005387 0.000131
